<svg width="1170" height="150" viewBox="147 150 1170 150" fill="none" xmlns="http://www.w3.org/2000/svg">
<path d="M220.337 150L177.629 281.323L171.555 300H147L153.063 281.323L195.771 150H220.337Z" fill="white"/>
<path d="M293.664 300H269.109L263.034 281.323L220.338 150H244.893L287.601 281.323L293.664 300Z" fill="white"/>
<path d="M757.857 150L715.149 281.323L709.074 300H684.52L690.582 281.323L733.29 150H757.857Z" fill="white"/>
<path d="M831.183 300H806.628L800.554 281.323L757.857 150H782.412L825.12 281.323L831.183 300Z" fill="white"/>
<path d="M1094.72 150L1052.01 281.323L1045.94 300H1021.38L1027.45 281.323L1070.15 150H1094.72Z" fill="white"/>
<path d="M1168.05 300H1143.49L1137.42 281.323L1094.72 150H1119.28L1161.98 281.323L1168.05 300Z" fill="white"/>
<path d="M420.993 281.323V300H328.708V150H351.978V281.323H420.993Z" fill="white"/>
<path d="M626.065 150L583.357 281.323L577.282 300H552.728L558.79 281.323L601.498 150H626.065Z" fill="white"/>
<path d="M552.727 300H528.172L522.098 281.323L479.401 150H503.956L546.664 281.323L552.727 300Z" fill="white"/>
<path d="M479.401 150H456.038V300H479.401V150Z" fill="white"/>
<path d="M649.428 150H626.064V300H649.428V150Z" fill="white"/>
<path d="M962.953 300H938.398L932.323 281.323L889.627 150H914.182L956.89 281.323L962.953 300Z" fill="white"/>
<path d="M889.626 150H866.263V300H889.626V150Z" fill="white"/>
<path d="M986.315 150H962.952V300H986.315V150Z" fill="white"/>
<path d="M1226.46 150H1203.09V300H1226.46V150Z" fill="white"/>
<path d="M1317 300H1287.36L1241.16 240.91L1226.46 222.105V221.813L1241.16 202.996L1282.6 150H1312.25L1255.99 221.953L1317 300Z" fill="white"/>
</svg>
